<mxfile host="app.diagrams.net" agent="Mozilla/5.0 (Windows NT 10.0; Win64; x64) AppleWebKit/537.36 (KHTML, like Gecko) Chrome/129.0.0.0 Safari/537.36" version="24.7.16">
  <diagram name="페이지-1" id="MoLtvVGNYbnIO6rRYeXf">
    <mxGraphModel dx="2336" dy="777" grid="1" gridSize="10" guides="1" tooltips="1" connect="1" arrows="1" fold="1" page="1" pageScale="1" pageWidth="827" pageHeight="1169" math="0" shadow="0">
      <root>
        <mxCell id="0" />
        <mxCell id="1" parent="0" />
        <mxCell id="5KOX99yl3v-jirwnwCUR-59" value="" style="swimlane;startSize=0;fillStyle=auto;fillColor=#ffffff;" vertex="1" parent="1">
          <mxGeometry x="-380" y="10" width="2740" height="960" as="geometry" />
        </mxCell>
        <mxCell id="5KOX99yl3v-jirwnwCUR-60" value="" style="rounded=0;whiteSpace=wrap;html=1;" vertex="1" parent="5KOX99yl3v-jirwnwCUR-59">
          <mxGeometry x="10" y="10" width="2720" height="940" as="geometry" />
        </mxCell>
        <mxCell id="5KOX99yl3v-jirwnwCUR-61" value="" style="shape=image;verticalLabelPosition=bottom;labelBackgroundColor=default;verticalAlign=top;aspect=fixed;imageAspect=0;image=data:image/png,iVBORw0KGgoAAAANSUhEUgAAAYIAAAJRCAYAAABIuLCVAAAAAXNSR0IArs4c6QAAAARnQU1BAACxjwv8YQUAAAAJcEhZcwAADsMAAA7DAcdvqGQAACGlSURBVHhe7d0PsB1XfR/w855syziWJf+REcJMHGx3BEYtgbYoU2qnZEpImxjR2HjC0FQNJiGdNP2Tdqp2WozJtFEmEFKaNkljiprSSRybVhgmpWSaQkqJaEJDrEG8EoMlY+Q/+I9k2ZKsP369575daXXf3nv3/nnv3ft+n8/MkfbunrO7976953t3997dmWuuuWY+VVx44YVp3bp1ae3ate2yZs2aYgoA0+jMmTPpxIkT6YUXXkjPPfdcOnXqVDFlwXlBsH79+vTSl7403Xb7O9J1112frrv+hnTllVcVU4lqpvi/dN4nhxr96ndOr+o2715tIhjb8+/3x+ui+/KbznChXrPncf48B152MXpmwHWrGub5LrQZbpmjv769PfnUU+lPH/x6evAb30i/ee996fHHH0+HDx8upraWXwZBDoC/8qbvSz92x3vS5s0vb0+ErHMj7bdp1m3U1TbdN/ru8+7VJoKxPf8h+pXey242w4V5NF34+fW6Ln++qFetUGk6bBAM+3yHeY69l5U1nV9z3zp0KP3qR/5D+uzv/6/06KOPtl7G+bTmsssue1/eE/irb/7+9M/f+7Np3brLiuqwoP/Ger66+tVxvebXr21UjV+DMfcbvZfbe2G5bVmG0bVte7H9lz3Mknu3qF9m1/Xso1mbYebc22Xr1qU33XxTeujgwfTNRx5pHzKazecE8t5A3hOAfpr0M93qlG+YPL0sdcp6ZWES9d4Shv279f2791hs37a1zs1wsHbdltV/LvXtehm8RRPvedePtfv+nAGz+cRwPifgcBDdlJ1277f++ZrWHWSeLL2yyxml6+nervccF6a2tohyY6srNXqva/9l9m5fOrfwZvUXW9Suy/PpbpildvfyzZvTj9x2a7r00kvT7Nq169NrvvcvF5NgfAbezhnNCC/4sJ3b2A34HIZd52Gf7yjLO6f1JMvnmf8vSyPDrkG961/5yva3Q1tBsDa94nLfDAJWo8Y97Jj0W96o6zPe53PD9deliy++OM3cfPOb5z/xqU8Wo7v78pf+oBgazGtf/z3FEBHVfX7p3JSbfMYp24z389D0aPS8R+gjBn9duy+s97x6tSumNXoeC5WGX1ap0cJa+i2v93wWLa+ues8n03Q9B/fmW7an2WK4kdypV0u28ZF3nC2XH/yR9B0P3p4umnt7evGBW9vTYZyW7u3A6tJkS2m6NfWrN8RW2dnpr1AIlAYKgm5e9ZaPtsvWt/zb9Lof+Pn0hh/4J+no82eKqf39zD/46bRh3drakqd16lX/X//SB4ta5xw48NB5dT5+328XU1L64bf9YNr7B/+7eMQkWvq3AePSsz/r8Zfs3W5QC8v5h//4Z9Kll1+WLll/6aLyklb5jsvXt+r8o3bdenk+S7j15Sddlootr31d+tznP188WixPe9V3//ni0XiMHAQnT72Y0pnn0/wLh9L8iQMpHf9/KT3/1XT02OmiRn8f/NCH0+GjLywqn/7M7xU1ztet/l0/+6+KGud77dYt6cv75s7We9ff/ps6/xHVbL9D09GvDr23h3H+lZvN69/f/evpD7/wxfTow99aVB57+JH0wJf+OP1aq85SO/e6NFvvX/vlD6cffdcdtWGQx/3ou96dfvXf/FIxZjwGCoJ8nqBasuMnXmwFwEMpHfvTNN8KgPnn9qf5Y19Nzx9vHgT5U3n1E3tZ3vLmNxU1hpc//eeAuPba7yrGpPSRj/6n9MUv7i0ekQ3SqVfrCgOySQuB7MUXX0ybN29uXzqnrlz3yle26yylYd4fN7/xjek3PnL3ojAoQ+A3PvLr7TrjNFAQXPx33pLSe/5aOv7jfz09fccPtcc9mz/5Pz/XCoGvLATB8a+1guChdPyFwf74+dN/9dN9WfKn/0Fcc80riiGqmmyQw9YZZmNn9Rj179+sfe5PxhUoTeYz2rLyczrveeXLYZRPoSw9dIbBUoZA1gqCF4rB/o6enk2v/8B/Tq//6X+ZjrSG2+OOnWkFwP7WHsHX0syJb7Rm92grio+lM2f6PNNl8sO3vj3d+S/+Wfs8QSkfGnrDG7YVj+IYR4c9jr9qt/XoNu9xrPeqNxlvtxrdV2ymNWnR33bJn8fwCxh+O6xZZoOZnQuDdy9pCGQD7REceXFNOn7wQDr6wJ+kw6cXLk/9XCsI7v6tP07/7p6H0od/66n04d8+3irH2tMGkQ8D1R0eymVU+fxAPk9Qzi/vfWz7nr9UTCXLm+oo78G8XQ/yRhn0TVXOf9B2q96of7iG1l22tqNcfLZcWikDKf+Y5XMY8HnUbwv9ZzLMNtS9Tb/l1UxvvAJDvCgDOTf/wYKg1fk/+8AD6dl9D6SjZxaC4Lu+/1Npyw/9Tvqzb/t0et1t/z29/u25fKb9f1Mf/6+fOnsoKB/Pz6V6eGhU+fxAdX5CYDS9Ns1B3mS5bllYOU1e/6PPvlCUE4vKc5UysLMbU/MOr/s2038ew2xr3ZfVfJ3ParwC8+cdDsolD1fPGYzm/HUfOAju+eQn08cf+mY6cmah6WeeufZs+Z0nXpH2fHNze/xK/JDs4YMH08tfXn/NpHHsWUQyzBumVG1bvl2GeMvQz4gvav47Nf87L+VfcRzz7T+PwZ7rgvo2Q6zvQC/2+SGQDwctHCYaRxjkdV+8/jM333zz/Cc+9ZniYXfdflmcO//XbHplevK5lA49k9Ijj/xRes8bnm8HQW7TKxDyVzibfjOo/CrpIPWrn/xzEIxj72Jaldtg0024X/1+23RduyZtGr9Xgql9XZr+MWsM/jp3X1j3efVewXa78p4CfS3Uq19W/Tzybwj+5Etfbn876Fy7c3UPHTqUbrjxVen5Z44UYxbPZ5DlVS20619vscUhUNVrWn/16/PmW9422B5B9RfF5f9PPPZceqoIgcefOpMefeTZ9vgmckddPWTTq+S6g9bnnLwJDLNZwnDGubUNN68fv+Pd6c+9/rVnf0C2UNadLTkEfqJVZ9xGCYF8k5j3/N2/37WjL/cMfuKn/l4xpqne6zNQENR59JHDac+nfy994fd/N819+XfTsedPFlMmT3myuLPU/Rp5tav/pMMkmr6/VdNOsFWv75MbLgSyX/yFD6bnnnk2HTvyXDp+thw9W/KewC/+wgeK2uMx/N9q4XnOzMyk/f/3D3t+2s/T5r78peJRE/1fw5EPDfXT69AQK6NzY63bTMo63Tahfht8r3l2k9sM/0aaXkM/5/7v764GX2b3hS2eV7MV63+RucUT6te7//IW2vWqVz+t6fLO1eu/LosN06ap/vPOh4YaBwGrR+fGXbeplHW6bUb1b5Bzes2zm9ymX53VaOjn3P893tXgy6xfWP18+q/YQruiXm31JVxercXTur9Gver2X5fFhmkziN7zH/gcAatDdbPotwl2ezPkdoNsvt3fVEyr5f6bDru8hT2PQbbWXssabD7N5KUt5avZf96tILiyGIRzqpt7uZnWba5N3hb9N0OmzXL+Teu2u6bOHn4aQPdlLUUIVC3lq1q+ivXLsEcQVN6k+23WTTf7XvWWctNmZQz7N+3dFY1f8+Wc24K7t2n6bugiN280i+V4dRYvQxCwJPKmNugmvRxvAZZa0w6zWb3+20T9fJpvS03Wo+lzqshNqqXUaFbL8U44fxmCgJHpwFe7Rr1XS5N6HT1j01nXGqlxy6jtF5zb/lvzy7PsNdtGb5bxrNcgBAFMurJzqZYRDBbcTRc24EqN/DxGfBHG5LzXst8q9X3hR35RGlq8HEEAk2rM/ULuh5qHwCALH7DeyM9p3Os1nIFCoK+lXdeF+ZdlsVYQPFUMAlNjwH6jeQDENchrdLZu9751ACPPYGQLPyj7xCeKhwBE8ta3vtWhIYDoBAFAcIIAIDhBABCcIAAIThAABCcIAIITBADBCQKA4AQBQHCCACA4QQAQnCAACE4QAAQnCACCEwQAwQkCgOAEAUBwggAgOEEAEJwgAAhOEAAEJwgAghMEAMEJAoDgBAFAcIIAIDhBABCcIAAIThAABCcIAIITBADBCQKA4AQBQHCCACA4QQAQnCAACE4QAAQnCACCEwQAwQkCgOAEAUBwggAgOEEAEJwgAAhOEAAEJwgAghMEAMEJAoDgBAFAcIIAIDhBABCcIAAIThAABCcIAIITBADBCQKA4AQBQHCCACA4QQAQnCAACE4QAAT2xlYRBADBCQKA4AQBQHCCACA4QQAQnCAACE4QAAT2+VYRBADBCQKA4AQBQHCCACA4QQAQnCAACE4QAAQnCACCEwQAwQkCgOAEAUBwggAgOEEAEJwgAAhOEAAEJwgAghMEAMEJAoDgBAFAcIIAIDhBABCcIAAIThAABCcIAIITBADBCQKA4AQBQHCCACA4QQAQnCAACE4QAAQnCACCEwQAwQkCgOAEAUBwggAgOEEAEJwgYAnMpV3bNqQNG0Ys23akXXPFLPvZs6N+HoOWQZZ51lzas2tH2nbec96Wtu3Ylfb0ndeetKNVf9uuPcVjWH6CgCWwJe3cezgdPjxK2Zt2tjrJXa2OuVEXuX13zTwGLHt3p+1zAywzm9uVtrU6/R2tBjt3763Ma2fanjv5bQvT+pkbOHxgfAQBE2pL2rKlGFwuW7an7duL4UZyR78rzW3ZmfbmEKmucGteORh2b2/tLezYNsReBiwfQQBD2rMj7zm09n5272z9W2/77lZA5ENlO1qBUYyDSSMIYCh70p58yGf7zrSz555La88gV5hr1ZcETChBwISam+zj5q0UyDmwpcHxqy3bt7f2GOZaTSQBk0kQsDTmdqUdI31zKB9X35K2784nXSdXkyCASScIWAILx8T3pJ1pb/VbOQOXfLJVRwtLbXZ9MQDjUxzWaX1aXu3d+JzvfbIK2COAYWzf3j5k1SQI5vbsaUXjllYTezdMJkEAQyl+c7BnV5/fCOxJu3KF/BsFOcCEEgQwpCa/EWjyWwNYabOH5+eLQRizubmuHeTqsD3t3tvq4PNlJvJlKapPNl+qYke+vET+5tPePr81gJUz38oAewQsgVYHuXv7QgdZ+9XQQcoA1/0Z2RAnufPlJdrfbkqtjr+y3tvyt6ZyUCxMg0kmCFga23f3/upo0Ttu310z7bySD78sl2G/7dT61L+z9XzPu9De3rQ3/wbCngBTQBBAqTiU5UdiRCMIoDREEMzt2jaWw1fCh5UkCKCwp30VuWEuf10cUhrK9rT78OG019lkVpAggLbiaqK+709AggCy8mqi7SuFQiwzN9100/z9999fPIQRtL9Pv3Q3YMnfMFr0Vcx8r+Im94IcUu0yK/I5gtZTTjv3+q0A0+mWW24RBDCSIoj6BQZMKkEAY5DvSbxjDDed2bJzr5PGLDtBABBcDgIniwGCEwQAwQkCgOAEAUBwggAgOEEAEJwgAAhOEAAEJwgAghMEAMEJAoDgBAFAcIIAIDhBABCcIAAIThAABCcIAIITBADBCQKA4AQBQHCCACA4QQAQnCAACE4QAAQnCACCEwQAwQkCgOAEAUBwggAgOEEAEJwgAAhOEAAEJwgAghMEAMEJAoDgWkGwvRgEICJ7BADBCQKA4AQBQHCCACA4QQAQXCsI9hSDAERkjwAgOEEAEJwgAAhOEAAEJwgAghMEAMEJAoDgZm666ab5+++/v3hI1fz8fHrxxRfb/8MkmpmZSUdfeDFtuOTCYgwM5pZbbhEEvZw+fTqtX78+XXDBBcUYmCynTp1K33ricLr80ouKMdMrv9+efPLJdPLkyfYHsMguueSSdMUVVyxL3yMI+sgb5pVXXlk8gsmT91YPHPp2uuLStcWY6ZTfa4cOHUobN25MV111VZqdjXvUOofg008/nR5//PG0efPmJQ8DQdBHNQhm/ulc+//o5te/LaWdXy0esdJWSxA88cQTacOGDT54VeQgePbZZ9OmTZuKMUsjB8FYYzf/IaulqvNxnVHad7YtS6k6DEyWY8eOeY92yHtG+TDZchhbEOQ/4uHDh88rg/xhR22fdbbPZSnN/9yWYqhev+mTZJrWldVpzZo1xRBZfj2W61yJr48CBCcIAIITBAMoD590HkbJj8vST+c8qm3KeVRLqTpc6hxXbdetfq/pVYPUBabbsgZBPuY/6HH/SZM7xeo3iMrHZenVaXZrWx2ulkHUta+uS7/pVYPUBabfsgbBcpzAXWq5U6zqfNxN2blWNW07rOr8R13WUq8rsHIcGloGdSEwbnn+eTm9PrmX0/vVazIvYPUQBEtsOTvT3IF368Tz43J6WXop69TNC1hdxhYE+ZBPeQ6gLIMcBhq1fdbZviwrqdqh9lLtdEftfJsus4lxzguYTGPdI8gdd7UMapT2nW2rZRI06UzLTrcsvXTOa5wdtU4fYlm2Q0Ojdsgr3X4ceoVBk5DIdcrSGRSd0zvrdJue/+/Ub17A6uKicz0s90XnOjvlSex8XXRusqyWi84dOHAgbd26tXhEad++fenaa68tHi2NsV90jtHkjr9aAJaDPYIe3I+ASWePYHWzRwDAshAEAMEJAoDgBAFAcE4W93Dt+/a1T8ZFvpE2k619B6uZmXTwfdN9otXJ4nrLdbJYEPTwfb/8tfTVQ0fbYQCTaKYVAq/avC79j5/6M8WY6TTOIOh3y8szZ84UQwtGrV+dnqd11h+FIADCWK49gkE76s76de2r46Y1CBzzAAhOEACrSv5U3q1QTxAAq04+PNOtsJggAGgoB0nnXsZqCBdBAKw6nZ11tYyqunexGkIgEwTAqlLXUXc+5nyCAKBG3nuoC45eexXTGjSCAFg1qoeAylI3vtQ5vlqq01c7QQCsGtVDQL1KqW5aXelUDYzOMo0EAcAA6oKiWqaRIAAIThAABCcIAIITBADBuQx1D/k+BNN68ocYTp482b5x0sUXX1yMmU5uTFPP/QgmQA6BdevWpQsuuKAYA5Pl+eefT0ePHk2XXHJJMeac06dPpyeffLIdFu07ma2AvF5XXHFF3/eQIKgnCCZAfiPljTjfBQom0YkTJ9IzzzyzKAjytnvo0KG0cePGdNVVV63I7VZz+Dz99NPp8ccfT5s3b+4ZBoKgnhvTAEPLHfCmTZvS1VdfvWL33M7LzSGUS94zYXKNbQvZsGFDMXROdVzn9Py4rpSqw1nn46xX/ao8rVpgtTt27NjEbOs5CPLhKSbXiu4RHD58+LyyVJZqOfmQUbU0NS3tmG6TcrmDvB4rdY6CZqbq0FDdJ/vqcFW1Xq8yjG4dar+OdlraAbFMVRDUfbKvDlf1qtc5bRBNOtBunW8/k9CO1e++978/7S+GF+xP73//fcVwy33vT1vzBdS2lvXua00vW9yXbi8urrZmzda0MLo6nWk01iAY9NP2oPWHkedb7fDz8FItC6bCV+5a6OgrHfpdXymm5VC4N6V7zpxJ++78Srqrkg8Lbm1Pa19gbd9tuTqrwFiDoPpJu9r51umsW5ZSdbhUDY2V6MwH+QRdrTst7QjixjvTvrIzb5d96c4bi2m5Z7/x1vTq1tCrb70t3bhfTx/Bih4a6uzYO0tVZ2CUpZ9cp3O+TdrBqtVzj6C5/fe1GuXEYOqtaBBUO/TOMk7VeY573jBtbr2nPLRzZ7qzHL7n1mJqq2f/yn3tIz7777s3feXV9T39/vtuT7ffe2O6VRCsChO7R1Cn2/hMBw8N7C9OBOey9a501+3n9goWzve+Or33ttQ+Ibz1rhvTnWU+lIr2t997W7pn33vtEKwSY7vERLdOuuyg8/TOzrpuXC+D1O8VGlW95ld3iYmmx9TzBeuqpqUd06XbJSYm7ZIN/S6V4BIT9abuEhO5Q60r/eQOu1upU1evLFV161JXAKJbtkNDdZ1uZ6fcWTrV1amW5dDkE3RdnWlpB8SzoucIplXuQLt1vr0612lpx/TLF3zLJ4EnQZP1mKT1nRTL+XoIghGUHeqgHeu0tGN6XXTRRRNzxc+6cxidJml9J0WT121cBAGsQuWln3NZqU/aebn5XgS55C9d9DIJ6zspBnndxsWNaXpwYxomXbdvDWV5+z148GD73gQrsSeYv5a6fv369rdemtzlb6XXd1IM+rqNyh3K+hAETLpeQQBNuEMZAIIAIDpB0MdDDz103jduFGWSSr5BvUOXjMo5gh7y7fU+9rGPpSNHjhRjYLLkk4rvfOc7V+wG9Uw/J4sBgnOyGABBABCdQ0PAisq/18m/KD558mT7vByp/buQ/BsmPygDVr0cAvmbTxs3bmxfZsJJ74UvqeRfV+dLTGzevHnJw8A5AmBF5Q5v06ZN6eqrrxYChfw65FAsr7+0HLzywIo5duzYoptKsSAHQT5cthwEAbCi8kXWWCy/Lst1zkQQAAQnCICplD8xl6Wq2x5G0/rVetVSqg6XutXN6upPGt8a6mPXpx9Jv/LZx9KR46eLMYutf8kF6R1v2Jh+7m3fWYyp1+9YaOd9l0etX52ep/W6r3O3ZZVt6tr3muewy8tyu872g9ZnOhw4cCBt3bq1eDQeuePtvLlN57jq47r6nXrVr2s/6Py72bdvX/u+BEvJt4b62PlfDqRd/+2RniGQ5em/8tlH26HRS+6oupU6dfXK0qnsCKulV+fZqWxTHS4fL4XOZXQ+7tQ5vfMxceSOtVthOIKgh9/8P4N9dSuHwWqSg6Qs3VTrVAsslfzpulvpJk+rBkavuhEJgh767Ql0OnK898ZV12GWZZKU69PkU3e1TrUslbxuef51r9kkvpYsnWrH3kSTwBhGZ8jkMm1BIwhG9Lfe+PJiqJnODrNaVlrZyeayEh1q2ZF3W3a5flndOpbrzupXdrZlyY+7qXbQnaWJXK+zY+9sX12XzrqdjyeRIBjB7jvySa7JuMl22TFWyyCdYmf9cn79VJdXLU3luuWy8v9l6VROryrbQS+dHXTn42F0tu8VKk0DZyUJgoa2v+7qYmhBDoH/OfdU+o+fP1SMaSZ3XN3KqKodaWen2U9d/eq4btOrpXPcOHWbX3W5xJE74fJTeS7DdOpl216Gnfe0EQQNbbjkwvTRO17THh42BMoOsiyd4yZBXUDlshTyfKuvQ5PlVNepWoin7KCbdNRlh1+tm4d7tR00BMpg6SzTQBA0tPvz30qfm3smPfSBm4YKgXHKHV9dcPTqEJsETTnfujIJne2krx/Lo7OT7Xw8qM7OvpzXICGQlcHSWaaBIBhADoPvfu8XhgqB3FF1lrrxpc7x1VKdvlKq61Ndl7pxdfK03IFX6dBpoq6zLUsv1cDoLFVN5lWnbr65TAO/LO7hO3f+0UBfIV3/kjXp4K6/UDxafv060c6Ot063eTRpO051QZFNyvoxHkvxy+LVxC+LJ8BPfu+mYqiZd/zFjcXQysidYa/SRF27XJZbt2V2rldZgOEJgh52vuWa9JM3v6x9LaFe8vRc9+f+xtImN8BScGgIWDEPP/xw2rJly9QcS19O+TzF/v37HRoCVreLLrpo2W7HOG2eeeaZ9k3sl4MgAFZMeV/eXIb5ps5qlF+HfOP6XK644opi7NJyaAhYUadPn04HDx5s38h+fn4yLtmykvJhsvXr17cPCV1wQe/zk+OQDw0JAoDAnCMAQBAARCcIAIITBADBCQKA4AQBQHCCACA4QQAQnCAACE4QAAQnCACCEwQAwQkCgOAEAUBwggAguNnLigEAYrJHABCcIAAIThAABDf7bDEAQEz2CACCEwQAwQkCgOAEAUBwggAgOEEAEJwgAAhOEAAEJwgAghMEAMEJAoDgBAFAcIIAIDhBABCcIAAIThAABCcIAIITBADBCQKA4AQBQHCCACA4QQAQnCAACE4QAAQnCACCEwQAwQkCgOAEAUBwggAgOEEAEJwgAAhOEAAEJwgAghMEAMEJAoDgBAFAcIIAIDhBABCcIAAIThAABCcIAIJrBcEPFoMARGSPACA4QQAQnCAACE4QAAQnCACCEwQAwQkCgOAEAUBwggAgOEEAEFwrCD5VDAIQkT0CgOAEAUBwggAgOEEAEJwgAAhOEAAEJwgAghMEAMEJAoDgBAFAcIIAIDhBABCcIAAIThAABCcIAIITBADBzb6sGAAgptlHiwEAYnJoCCA4QQAQnCAACE4QAAQnCACCEwQAwQkCgOAEAUBwggAgOEEAEJwgAAhOEAAEJwgAghMEAMEJAoDgBAFAcIIAIDhBABCcIAAIThAABCcIAIITBADBCQKA4AQBQHCCACA4QQAQnCAACE4QAAQnCACCEwQAwQkCgOAEAUBwggAgOEEAEJwgAAhOEAAEJwgAghMEAMEJAoDgBAFAcIIAIDhBABCcIAAIThAABCcIAIITBADBCQKA4AQBQHCCACA4QQAQnCAACE4QAAQnCACCEwQAwQkCgOAEAUBwggAgOEEAEJwgAAhOEAAEJwgAgpudn58vBgGIJmeAPQKA4AQBQHCCACA4QQAQnCAACE4QAAQnCACCEwQAwQkCgOAEAUBws1dddVUxCEA0OQPsEQAEN3vkyJFiEIBocgbMnj59ungIQDQ5AxwaAghOEAAEJwgAghMEAMEJAoDgBAFAcIIAIDhBABCcIAAIThAABCcIAIKbvfzyy4tBAKLJGTDbUjwEIJqcAS5DDRBY+zLUp06dKh4CEE3OAMeFAIITBADBCQKA4AQBQHCCACA4QQAQnCAACE4QAAQnCACCEwQAwQkCgOAEAUBwggAgOEEAEJwgAAhOEAAEJwgAghMEAMEJAoDgBAFAcIIAIDhBABCcIAAIThAABCcIAIITBADBCQKA4AQBQHCCACA4QQAQnCAACE4QAAQnCACCEwQAwQkCgOAEAUBwggAgOEEAEJwgAAhOEAAEJwgAghMEAMEJAoDgBAFAcIIAIDhBABCcIAAIThAABCcIAIITBADBCQKA4AQBQHCCACA4QQAQnCAACE4QAAQnCACCEwQAwQkCgOAEAUBwggAgOEEAEJwgAAhOEAAEJwgAghMEAMEJAoDgBAFAcIIAIDhBABCcIAAIThAABCcIAIITBADBCQKA4AQBQHCCACA4QQAQ2MzMjCAAiE4QAAQnCACCEwQAwQkCgOAEAUBwggAgOEEAEJwgAAhOEAAEJwgAghMEAMEJAoDA5ufnBQFAdIIAIDhBABCcIAAIThAABCcIAIKbzferBCAm9ywGIM2ePn06PfXUU8VDAKLIfX/OgNkTJ06kr3/968VoAKJ48MEHU86A2RdeeKH9AIBY8k5AzoDZo0ePpnvvvTcdOnSomATAapf7/Nz35wyYPXnyZHrsscfS3XffXUwGYLXLfX7u+3MGrFm3bt37jh8/np5++ul08ODBdMMNN6TWuKIqAKtJ3hP40Ic+lD73uc+lb3/72+2vj8687GUvm8+XIc0PNmzYkDZt2pRuu+22dN1116Xrr78+XXnllUVzAKZR/nZQPh+Qzwfnw0F5T+Dw4cPtS1CfFwSlCy+8MF122WVp7dq16eKLL05r1qwpppyv2oZ4/P2nlx+Rrl7d/rb5K6L520H5xHA+J3Dq1KliSm4zk/4/BkKAl1V96KMAAAAASUVORK5CYII=;" vertex="1" parent="5KOX99yl3v-jirwnwCUR-59">
          <mxGeometry x="1330" y="20" width="312.45" height="480" as="geometry" />
        </mxCell>
        <mxCell id="5KOX99yl3v-jirwnwCUR-62" value="" style="shape=image;verticalLabelPosition=bottom;labelBackgroundColor=default;verticalAlign=top;aspect=fixed;imageAspect=0;image=data:image/png,iVBORw0KGgoAAAANSUhEUgAAAYIAAAJRCAYAAABIuLCVAAAAAXNSR0IArs4c6QAAAARnQU1BAACxjwv8YQUAAAAJcEhZcwAADsMAAA7DAcdvqGQAACAUSURBVHhe7d0LkF13fR/wv1Z+CAc9/MQIkzjYngqIWjDTWgmOHUpKnFKMoDZuGE+igsMEpoW2yUyVyQQwHQZ1hkAgLcykThAdd4prJxUKpJSUFAgFkQlPNUIlJpKMkBG2pZVlPSxL2t7/3XOko6tz33d3793f5zPzt8/jf849e1b7+97zuOcuueaaa2ZSxYUXXpiWL1+eLr744mZbunRpMQeASXTq1Kl0/Pjx9PTTT6ennnoqPfPMM8WcWecEwcqVK9NznvOc9Ia7fim94Lrr0vXX35Auv/yKYi4sPkuK/3O+5r45521iOz11OsfZ/d7/suc7dx39/U4H3fZhtvvssme2dajdUCzc4Qd//Ikn0t88/HD63vf+Nn3iwYfS/v370/T0dDG3sWgZBDkAXvGKV6Y3/+pb0urVz2vOhMWuv6IRR3O/9FScBqtgwxfT0vnr6P132v/rn133oNt+drkz6xp6N1RW0MMP/4N9+9Lv3/eH6fNf/GJ69NFH08zMTFq6YsWKd+cjgX/0ql9Iv/2ue9Py5SuK7jBZei8AZw2yzGKW90dznwxdnOqdWX/TaPf+uesenXK9Z9c9/M5ZMtL92+anbjN5xfLl6RW33pJ2796Tvr93b/OU0VS+JpCPBt58z1uKbkAkZwpdLk5lG7HyNc7Xplr16My2N8f60f2HHGy9ncw09/FoQ6BUsye6/C7fcs+bmrU/Z8BUvjCcrwk4HcRiMPo/3sWrua/KYjFQceq+0Fz+PpYMttE9ab/Nfb5msW/nLgDqtGx9sQ2tm/681avTP7vzjvTsZz87TV188cr04p+7uZgFi0NZgOaqCNHdpO77kW13UXhn1zdvKdCX6667rnl3aCMILk4/fqk7g5h8bd74nAmEskFINf/4b7j+urRs2bK05NZbXzWz9VOfLCa3942vfbUY6s9LX3ZTMQTzp1vBL8MicjA0f/ah3qh2Xrj3fTvYRgx3auj8ZXvb3j5es+g6u95htrUfNa/T5Qe77TWvTVPFcE9yUa+27Mq9bzzTLt3zS+nHHr4rXbTzDen0t+9ozgcYd72H1rjKATB42PQVBO288LaPNdva2/5juvEX/3266Rf/bTp85FQxt7t/86/fkVYuf1Zty/Nader/u7/7gaLXWbt37zqnzx899GAxJ6XXv+729JWvfLkYY7GYr/dfjK9f/41fT8tXrUg/tuLZNW15Y97KRp/fKHqPQFmLh6vJ6UUveWn6wpe+VIydL8978UtvLMayDi/WY8INHQQnnjmd0qkjaebpfWnm+O6Ujv2/lI58Jx0+erLo0d0HPvihdOjwsfPaZz77uaLHudr1v/ffvbfoca6/t/ZF6Vvbd5zp96Z//suKP6FN+jvgXrb/9+/7T+kvv/LVtO/7P6i0vWfaN7/+jWaf3vVf3QfZzx/9D7+XfuXNb64Ngzwtz/vI7324mNJBHy/eVxDk6wTVlh07froRALtSOvo3aaYRADNP7UgzR7+TjhzrPQjyu/LqO/ay3faqVxY9Bpff/eeAuPbanyympPSHH/vP6atf3VaMAQtniLfOXZw+fTqtXr26+eicunbdC17Q7NOb/rYz1+Czdbi/ZW+9+eb08T/4g/PCoAyBPC/3mV1vzbrPffGe9BUEy952W0q/9o/Tsbe8Oh245zXNaU/md/5HdjZC4K9ng+DYdxtBsCsde7q/Hz6/+6++uy9bfvffj+df8/xiCGg1QI0YK8Ntf3816az+lju7fW0KdQ9aw6A+BEanEQRPF4PdHT45lV72/v+SXvb296ZDjeHmtKOnGgGwo3FE8N205PjfNlb3aCOKj6ZTp0a7oYP6p3fcmd7127/VvE5QyqeGbrppXTFGRJNeEAdx3s871J/o/P99D1dgB93e+V7urGoY9BwCA/6j7uuI4NDppenYnt3p8Le/laZPzj6e+qlGENz3iW+kjzywK334E0+kD/+3Y412tDmvH/k0UN3podyGla8P5OsE5fry0cdP//TPFHMhmFxH+qxTy1c8q6VdUtvKgO2tHg1SLIcvsItOfzu9Vn9B0Cj+T3772+nJ7d9Oh0/NBsFP/sKn0prX/Gn6u6/7TLrxzv+ZXvaG3D7b/H+v/vi/bz1zKiifz8+tenpoWPn6QHV9QoCwBqyjh5881tKO1rbejU8IDFE/51T1dNDZ00R/UcwtjGjj+w6CB/7kT9If7fp+OnRqdtHPHrz2TPvTHz0/bfn+6ub0hfgg2SN79qTVz6t/ZtIojiwgtlyIyzaMuSnoi0nrNYFbb355Y/i+xrR7mvOaRphgS2699daZrZ/6TDHaXrtPFufi/1NXvyA9/lRK+w6mtHfvX6Vfu+lIMwjyMp0CId/C2eudQeWtpP30r77zz0EwiqMLJse4vtNbKM39MVQN7rxw7/t7sI3o95PE+TME3/z6N9N1Lzh7x2DVvn370t950QvTU9OHiil1Orxmm1mz+2GwnzHrdGF4dt49zVC49WdH84y4gT9ZXA5nP/rhU+mJIgT2P3EqPbr3yeb0XuRCXT1l06nlvv32BxaHQUL9Lff8anrJjS9pfnisruUQyH3a67+YDxsC+Uti3vYv314JgXPl4p9D4K3/4u3FlNHoKwjqPLp3Om35zJ+nL3/xz9LOb/5ZOnrkRDFn/JQXi1tb3aeRgcn2O+//nXS48W7/yJOHa1s+EvjA+99f9G7VXzHPATBsCGRLlixJ//frX6sNgVIOgx3f+noxNhpDnxrqptOpIZhLg7yLXMya+2OoOtV54d73d+8bce46+9349v07b2uPr1N0O7uufrevV+e90EjlU0M9BwFMmjn6u5lYzf0xVK3qvHDv+7u3jRiuwA66rX28VtF1dl2DbGM/znmxker7GgEwmeagfgyo34I51wV2UuTfYKPl3TEHu6QRBJcXgwBzZZAKJgTOV0T6iHeNIwJYxIr3kQtsvAr6wu+PYVXCYES7VhDAInVewRuqaHReeLyK63gFz9wY7R4XBLDYjfCdY6tcjsYrBIbRx04qui7czz7aDRAEsJjNUQCMr/Y/cOfQmrAQ6PzD9E0QMHHKv4GF+0OMIle8sp1v/PZ//XZmnbe1/XLnKbqeu74+lh9a47XmYMc3guCJYhBgPPRf6+a4GOfV14bAfJq7n7H5gbJPfvKTxSgAkbz2tT5QBhCeIAAIThAABCcIAIITBADBCQKA4AQBQHCCACA4QQAQnCAACE4QAAQnCACCEwQAwQkCgOAEAUBwggAgOEEAEJwgAAhOEAAEJwgAghMEAMEJAoDgBAFAcIIAIDhBABCcIAAIThAABCcIAIITBADBCQKA4AQBQHCCACA4QQAQnCAACE4QAAQnCACCEwQAwQkCgOAEAUBwggAgOEEAEJwgAAhOEAAEJwgAghMEAMEJAoDgBAFAcIIAIDhBABCcIAAIThAABCcIAIITBADBCQKA4AQBQHCCACA4QQAQnCAACE4QAAQnCACCEwQAwQkCgMBubjRBABCcIAAIThAABCcIAIITBADBCQKA4AQBQGBfajRBABCcIAAIThAABCcIAIITBADBCQKA4AQBQHCCACA4QQAQnCAACE4QAAQnCACCEwQAwQkCgOAEAUBwggAgOEEAEJwgAAhOEAAEJwgAghMEAMEJAoDgBAFAcIIAIDhBABCcIAAIThAABCcIAIITBADBCQKA4AQBQHCCACA4QQAQnCAACE4QAAQnCACCEwQAwQkC5sDOtGndqrRq1ZBt3Ya0aWexym62bKhfR7+tn9c8Y2fasmlDWnfOz7wurduwKW3puq4taUOj/7pNW4pxmH+CgDmwJm3cNp2mp4dp29LGRpHc1CjMPZXI9Ztr1tFn27Y5rd/Zx2tmOzeldY2iv6GxwMbN2yrr2pjW5yK/bnZeNzv7Dh8YHUHAmFqT1qwpBufLmvVp/fpiuCe50G9KO9dsTNtyiFQ3uLGuHAyb1zeOFjasG+AoA+aPIIABbdmQjxwaRz+bNzb+W2/95kZA5FNlGxqBUUyDcSMIYCBb0pZ8ymf9xrSx45FL48ggd9jZ6C8JGFOCgDG1c7zPmzdSIOfAmh7OX61Zv75xxLCzsYgkYDwJAubGzk1pw1B3DuXz6mvS+s35ouv46iUIYNwJAubA7DnxLWlj2la9K6fvli+2KrQw16ZWFgMwOsVpnca75cVexne675NFwBEBDGL9+uYpq16CYOeWLY1oXNNYxNEN40kQwECKzxxs2dTlMwJb0qbcIX9GQQ4wpgQBDKiXzwj08lkDWGhT0zMzxSCM2M6dbQvk4rA+bd7WKPD5MRP5sRTVHzY/qmJDfrxEvvNpW5fPGsDCmWlkgCMC5kCjQG5eP1sga28N7af18dyfoQ1wkTs/XqJ5d1NqFP7Kdq/Ld03loJidB+NMEDA31m/ufOtoUR3Xb66Zd07Lp1/my6B3OzXe9W9s/LznPGhvW9qWPwPhSIAJIAigVJzK8iExohEEUBogCHZuWjeS01fCh4UkCKCwpfkUuUEef12cUhrI+rR5ejptczWZBSQIoKl4mqj7/QlIEEBWPk20+aRQiGXJLbfcMrN169ZiFIbQvJ9+7r6AJd9hdN6tmPm7inv5LsgB1b5mRb5G0PiR08ZtPivAZLr99tsFAQylCKJugQHjShDACOTvJN4wgi+dWbNxm4vGzDtBABBcDgIXiwGCEwQAwQkCgOAEAUBwggAgOEEAEJwgAAhOEAAEJwgAghMEAMEJAoDgBAFAcIIAIDhBABCcIAAIThAABCcIAIITBADBCQKA4AQBQHCCACA4QQAQnCAACE4QAAQnCACCEwQAwQkCgOAEAUBwggAgOEEAEJwgAAhOEAAEJwgAghMEAMEJAoDgGkGwvhgEICJHBADBCQKA4AQBQHCCACA4QQAQXCMIthSDAETkiAAgOEEAEJwgAAhOEAAEJwgAghMEAMEJAoDgltxyyy0zW7duLUapmpmZSadOnSrGYPycOHEiTU1NpWXLlhVToD+33367IOgkh8Dy5cvTBRdcUEyB8XLkyJF0+PDhdMkllxRTJtfJkyfT448/3gy306dPF1Njyr/Pyy67bF5qjyDoIv/DzL+MJUuWFFNgvBw/fjwdPHhw4oMg/63t27cvXXnllemKK65oHuVElUPwwIEDaf/+/Wn16tVzHgY5CFwjABZcLnxXX311uuqqq0KHQJZ//hyGueUjpPkw0j2+atWqc1pV63idYZZvXbZspeowMF6OHj3qb7RFDoJ8mmw+jCwI8i9xenr6nNbPL3bY5bPW5XObS91OGU3SKSWnv1hoS5cuLYbI8v6Yr2slTg0BBCcIAIITBH0oT5+0nkbJ42XrpnUd1WXKdVRbqTpcap1WXa5d/07zq/rpC0y2eQ2CfM6/3/P+4yYXxfxBs1I5XrZORbPdstXhautH3fLVbek2v6qfvsDkm9cgmI8LuHMtF8Wq1vF2yuJa1euyg6quf9jXmuttBRaOU0PzoC4ERi2vP79Op3fu5fxu/XpZF7B4CII5Np/FNBfwdkU8j5fzy9ZJ2aduXcDiMrIgyKd8ymsAZevnNNCwy2ety5dtIVULaifVojts8e31NXsxynUB42mkRwS5cFdbv4ZZvnXZahsHvRTTsuiWrZPWdY2yUCv6EMu8nRoatiAv9PKj0CkMegmJ3KdsrUHROr+1T7v5+f+tuq0LWFxcI+hDazGsK47VaZ3m162rW/HN42Urx6uq81vnZXXzW/9fqvZrnQcsLoJgjCi+wEIQBADBCQKA4AQBQHCCACA4QQAQnCDoYteuXefdzaNp49LyF77nW41hGEtuueWWma1btxajVOWvibv//vvToUOHiikwXlauXJnuvvvuif/C9927d6e1a9cWY8Pp9pWXp06dKoZmDdu/Oj/Pa+0/jO3bt6drr722GJsbt99+uyAAFt4og6CTfgt1a/+65avTJjUInBoCCE4QAItKflferlFPEACLTj49065xPkEA0KMcJK1HGYshXAQBsOi0FutqG1b16GIxhEAmCIBFpa5Qt45zLkEAUCMfPdQFR6ejikkNGkEALBrVU0Blq5teap1ebdX5i50gABaN6imgTq1UN6+utaoGRmubRIIAoA91QVFtk0gQAAQnCACCEwQAwQkCgOA8hrqD/MUfk3rxhxhOnDjR/C6CZcuWFVMm03w9hnrS+D6CMZBDYPny5emCCy4opsB4OXLkSDp8+HC65JJLiilnPXLoVHrbpw+k7T96Jh06frqYOr9efcOz0vt+flX68ZWdb6sUBPUEwRg4efJkuuyyy3wVIGPr+PHj6eDBg+cFQQ6Bn/3Y/vSvXn55evvPXJZWLZv/s8DTjfD5+Nen073/67H0F296TscwEAT1fDENMLDf/Nx0evcrr0rv/IdXLEgIZPl139EIoXe8/LLmkQnja2T/QlatWlUMnVWd1jo/j9e1UnU4ax3POvWvyvOqDRa7T3/3WPrlG1cWYwsrB8H2/c8UY4yjBT0imJ6ePqfNlbl4nU6ni/K8stXpNj/rNh+6WagjgVarli1Nh55emGsU9GaiTg3VvbOvDldV+3Vq/eqlgOe7jcrW2rfbfID5NlFBUPfOvjpc1alf67x+lAW8Tlnkq6rFvtv8Ul0/GI2H0l1nHpC2Nr1nR2PSjvek9zw0O/fc+UvTXc3pD6X3NDvODp+3/DnzmUQjDYJ+3233238Qeb3Vgp+H5+q1uqkr7oo+8+uO9ED5gLTtdzZCoJh8RnX+u9KLi6lndVueSTTSIKi+064W3zqtfctWqg6XqqGxUMW8k14LfZ5Wtrp5goGFsyO9Z23xjn/tvemvi6ksbgt6aqi1sLe2qtbAKFs3uU/rentZbhTaFfU8rWy5DyyEHQ81yvyLZocfvKs8DdRw5wOz7/gb7YE7imk1qssz2RY0CKoFvbWNUnWdo153O72+s6+GgaMB5suOh+5Kdz344nRHUcjvfKCm6O/YkR66a+3ZgKhoXZ7JNrZHBHXaTc/mq8D3YpiCnpctW3UcRmLHe9LafBH4wTvTA9vfWf+G/sG7Zk8N3XVXerBxdPCuakD0sjwTZ2SPmGhXpMsCnee3Fuu6aZ30079TaFR1Wl+nR0zkaXXFvt30rN9lOq0LsnaPmFi1aW869d4XFmNd5LuGdrwzvbPDaaBhLf2t76TpjdcUY+fziIl6E/eIiVxQ61o3uWC3a3Xq+pWtqm5b6toodSvceV7uU6XYs+BeNLchwPibt1NDdUW3tSi3tlZ1faptHOTCXtdKZRiUTQgAC21BrxFMsroCnqe1a1XtprfqNh/aWblsqvn0z3Ewfbz7d3rk71TIdylx1nzuD0EAi9Daqy5MH/o/4/HEz49/7VDzewk6ueiii9Ljjz9ejJHVXfuZK4IAFqGPvPrS9KEvP9FoBxbsyCC/7r2feyzd++ePpff9fOcnoV5xxRXNIMgt+pFB/vn379/fbPlmlfngi2k68MU0jLt2dw1ljxw6mX7z03vTp3cczOcZi6nzZ+WypWntNSvSR17//PTjK7t/y1/+e9uzZ086cOBA6NOi+dbdlStXNu8Wmo9vR/QNZV0IAsZdpyCAXviGMgAEAUB0gqCLXbt2nbnVU9PGre3bt8+pS4bmGkEHp0+fTvfff386dOhQMQXGS76oePfddzfvw4dBuFgMEJyLxQAIAoDonBoCFlT+vE7+RPGJEyea1+VIzc+F5M8w+UAZsOjlEMh3Pl155ZXNx0y46D17k0r+dHV+xMTq1avnPAxcIwAWVC54V199dbrqqquEQCHvhxyK5fOX5oM9DyyYo0ePnvelUszKQZBPl80HQQAsqPyQNc6X98t8XTMRBADBCQJgIuV3zGWraneE0Wv/ar9qK1WHS+36ZnX9x427hrrY9Jm96aOf/2E6dOxkMeV8K591QXrjTVem973uJ4op9bqdC2393uVh+1fn53mdvte53WuVy9Qt32mdg75elpdrXb7f/kyG3bt3p7Vr1xZjo5ELb+uX27ROq47X9W/VqX/d8v2uv53t27c3v5dgLrlrqIuNf7w7bfofezuGQJbnf/TzjzZDo5NcqNq1OnX9ytaqLITV1ql4tiqXqQ6X43Oh9TVax1u1zm8dJ45cWNs1BiMIOvivf9nfrVs5DBaTHCRla6fap9pgruR31+1aO3leNTA69Y1IEHTQ7Uig1aFjnf9x1RXMso2Tcnt6eddd7VNtcyVvW15/3T4bx33J3KkW9l70EhiDaA2Z3CYtaATBkH7l5ucVQ71pLZjVttDKIpvbQhTUspC3e+1y+7K6bSy3ncWvLLZly+PtVAt0a+tF7tda2FuXr25La9/W8XEkCIaw+Z58kWs8vmS7LIzV1k9RbO1frq+b6utVW69y3/K18v/L1qqcX1UuB520FujW8UG0Lt8pVHoNnIUkCHq0/sariqFZOQT+984n0se/tK+Y0ptcuNq1YVULaWvR7Kauf3Vau/nV1jptlNqtr/q6xJGLcPmuPLdBinq5bCeDrnvSCIIerbrkwvSxe36qOTxoCJQFsmyt08ZBXUDlNhfyeqv7oZfXqW5TtRFPWaB7KdRlwa/2zcOdlu03BMpgaW2TQBD0aPOXfpC+sPNg2vX+WwYKgVHKha8uODoVxF6CplxvXRuHYjvu28f8aC2yreP9ai325br6CYGsDJbWNgkEQR9yGLz0nV8eKARyoWptddNLrdOrrTp/oVS3p7otddPq5Hm5gFcp6PSirtiWrZNqYLS2ql7WVaduvblNAp8s7uAnNv5VX7eQrnzW0rRn098vxuZftyLaWnjrtFtHL8uOUl1QZOOyfYzGXHyyeDHxyeIx8Nafu7oY6s0b/8GVxdDCyMWwU+tF3XK5zbd2r9m6XWUDBicIOth42zXprbc+t/ksoU7y/Nz3fa+f2+QGmAtODQEL5pFHHklr1qyZmHPp8ylfp9ixY4dTQ8DidtFFF83b1zFOmoMHDza/xH4+CAJgwZTfy5vbIHfqLEZ5P+Qvrs/tsssuK6bOLaeGgAV18uTJtGfPnuYX2c/MjMcjWxZSPk22cuXK5imhCy7ofH1yFPKpIUEAEJhrBAAIAoDoBAFAcIIAIDhBABCcIAAIThAABCcIAIITBADBCQKA4AQBQHCCACA4QQAQnCAACE4QAAQ3taIYACAmRwQAwQkCgOAEAUBwU08WAwDE5IgAIDhBABCcIAAIThAABCcIAIITBADBCQKA4AQBQHCCACA4QQAQnCAACE4QAAQnCACCEwQAwQkCgOAEAUBwggAgOEEAEJwgAAhOEAAEJwgAghMEAMEJAoDgBAFAcIIAIDhBABCcIAAIThAABCcIAIITBADBCQKA4AQBQHCCACA4QQAQnCAACE4QAAQnCACCEwQAwQkCgOAEAUBwggAguEYQ/JNiEICIHBEABCcIAIITBADBCQKA4AQBQHCCACA4QQAQnCAACE4QAAQnCACCawTBp4pBACJyRAAQnCAACE4QAAQnCACCEwQAwQkCgOAEAUBwggAgOEEAEJwgAAhOEAAEJwgAghMEAMEJAoDgBAFAcIIAILip5xYDAMQ09WgxAEBMTg0BBCcIAIITBADBCQKA4AQBQHCCACA4QQAQnCAACE4QAAQnCACCEwQAwQkCgOAEAUBwggAgOEEAEJwgAAhOEAAEJwgAghMEAMEJAoDgBAFAcIIAIDhBABCcIAAIThAABCcIAIITBADBCQKA4AQBQHCCACA4QQAQnCAACE4QAAQnCACCEwQAwQkCgOAEAUBwggAgOEEAEJwgAAhOEAAEJwgAghMEAMEJAoDgBAFAcIIAIDhBABCcIAAIThAABCcIAIITBADBCQKA4AQBQHCCACA4QQAQnCAACE4QAAQnCACCEwQAwQkCgOAEAUBwUzMzM8UgANHkDHBEABCcIAAIThAABCcIAIITBADBCQKA4AQBQHCCACA4QQAQnCAACG7qiiuuKAYBiCZngCMCgOCmDh06VAwCEE3OgKmTJ08WowBEkzPAqSGA4AQBQHCCACA4QQAQnCAACE4QAAQnCACCEwQAwQkCgOAEAUBwggAguKlLL720GAQgmpwBUw3FKADR5AzwGGqAwJqPoX7mmWeKUQCiyRngvBBAcIIAIDhBABCcIAAIThAABCcIAIITBADBCQKA4AQBQHCCACA4QQAQnCAACE4QAAQnCACCEwQAwQkCgOAEAUBwggAgOEEAEJwgAAhOEAAEJwgAghMEAMEJAoDgBAFAcIIAIDhBABCcIAAIThAABCcIAIITBADBCQKA4AQBQHCCACA4QQAQnCAACE4QAAQnCACCEwQAwQkCgOAEAUBwggAgOEEAEJwgAAhOEAAEJwgAghMEAMEJAoDgBAFAcIIAIDhBABCcIAAIThAABCcIAIITBADBCQKA4AQBQHCCACA4QQAQnCAACE4QAAQnCACCEwQAwQkCgOAEAUBwggAgOEEAEJwgAAhOEAAEJwgAghMEAMEJAoDgBAFAcIIAIDhBABCcIAAIThAABCcIAAJbsmSJIACIThAABCcIAIITBADBCQKA4AQBQHCCACA4QQAQnCAACE4QAAQnCACCEwQAwQkCgMBmZmYEAUB0ggAgOEEAEJwgAAhOEAAEJwgAgpvK31cJQEy+sxiANHXy5Mn0xBNPFKMARJFrf86AqePHj6fvfe97xWQAonj44YdTzoCpp59+ujkCQCz5ICBnwNThw4fTgw8+mPbt21fMAmCxyzU/1/6cAVMnTpxIP/zhD9N9991XzAZgscs1P9f+nAFLly9f/u5jx46lAwcOpD179qQbbrghNaYVXQFYTPKRwAc/+MH0hS98IT322GPN20eXPPe5z53JjyHNI6tWrUpXX311uvPOO9N1112Xrr/++nT55ZcXiwMwifLdQfl6QL4enE8H5SOB6enp5iOozwmC0oUXXphWrFiRLr744rRs2bK0dOnSYs65qssQj9//5PIh0sWr3e823yKa7w7KF4bzNYFnnnmmmJOXWZL+P+7H0dQQcfSHAAAAAElFTkSuQmCC;" vertex="1" parent="5KOX99yl3v-jirwnwCUR-59">
          <mxGeometry x="1660" y="20" width="312.45" height="480" as="geometry" />
        </mxCell>
        <mxCell id="5KOX99yl3v-jirwnwCUR-63" value="" style="shape=image;verticalLabelPosition=bottom;labelBackgroundColor=default;verticalAlign=top;aspect=fixed;imageAspect=0;image=data:image/png,iVBORw0KGgoAAAANSUhEUgAAAYIAAAJRCAYAAABIuLCVAAAAAXNSR0IArs4c6QAAAARnQU1BAACxjwv8YQUAAAAJcEhZcwAADsMAAA7DAcdvqGQAAB7OSURBVHhe7d15rFzXfR/w8x610Iq5aDVN24AiyShjm43jpWaKhEqK1pbbmn52TbMtBJStHTdImxRtApR/NHastgALuHHqNPmjkRsWUIGoVGyaMeIlRVGrQUwbTrwQZthUDklboaxYEklRXESRep0z717xvuGdfXkz7/f5AIe8+70z78z5zl3m3rlXv/rVi6ni+uuvT+vWrUs33nhjs6xZs6YYA8AsunLlSrp48WJ6/vnn03PPPZdeeOGFYsySZUGwYcOG9IpXvCK9f9ffT3fffU+6+57XpltvvbUYu/rMNcqyFByTvJ5slOvqZ5nltNCLnutL3xX62hkGq5v9rbh+HaP4NF5dxiRexzCeevrp9Nhjj6XHvvPn6eH9+9OTTz6ZTp8+XYxtbH8ZBDkAfvqn/0b6wM/807R58+bmyNWs/MON+0/RWkFGtb5+t3+wiko0bevJSCru8oUMVif725Br1zGqT2B2dVmTeC2j8hcnT6bfevCT6X8/+mh64okn0uLiYlqzfv36X8l7An/r7e9Iv/yRjzYPCzG8XDHKyjGOP3e57F4r4GAVlQjKutq2joysAl9dw+D1sb85r5168DUvt/Sm5KWNaomTsr7Rxv/UvfemY8dPpO89/njzkNF8PieQ9wY+8MEPFZMxrGrFGFfmV5dbVsZOFbLbduTx49pWplO3OtM04krR0zpHZJzrmeTrGJcPffADzbY/Z8B83gPI5wQiHA6ahF4rxygqUt1ndJBlVpcjDGLoqZ6MqDKUdX3Y+t5NdT3jWtfSskf1KRnXVvbmVY02f9fOnenlL395mr/xxg3pDT/1k8UohjXNDWm7bVvZ6siktf175wpSLWMxnto2iTo8+nWM7U3u2T1339W8OrQRBDem19x8WzGYSRnnZ22QClvOM4kPFLDyIZDdc889ae3atWnu3nvfvnjwsweKwe19/Y+/WnT158fe/NeKrljKBrWXP3dr49tvFenWeFeXp6GnbR0YU9t07fqGXdG18/dXrwdb/9V1jH77V9I737UjzRfdPcmNerVktz/+D18qN5/4B+mHHtuVbjj6/vTit97XHL8a5QrRX8XrT7/LztWqU9Ua57YCs6+vIGjnR+777WbZet9vpDe98z+kt73zX6ez564UY7v7V//yX6QN626qLXlcq07T/9qv/Wox1VXHjx9bNs3vPrK/GJPSe9+zI335y39U9PVn2hrYbmHQz/Z2CxcYzORq1S/+0i+mdRvXpx9a//KWsq5Z1m3c0Jjml4qpJ6X763/9j/5Y+tL/+cOi71p53Bve+KaibzSGDoJLL7yY0pVzafH5k2nx4vGULvzflM79aTp7/nIxRXe/+vH/lM6cPX9N+fwX/2cxxXLtpv/ov/13xRTL/ejW16dvHv72S9P9k3/8jwZu/LOykez0J+02HlbCyn55GcUnovdl/JcHfyt99ctfSSe/9xeV8vhL5Rt/8vXmNP0Z/6f6N//zr6fdH/hAbRjkYXncb/z6J4oho9FXEOTzBNWSXbj4YiMAjqV0/v+lxUYALD53JC2e/9N07kLvQZC/lVe/sZflvrf/zWKKweVv/zkg7rzzh4shKf3X3/5v6StfOVT01ev3G3Sn6ctx7aZprVrdqlq35UGrla8rwzagef7+lvHiiy82L4vPP5hdKusr3RvS3Xfd1Zymd8O+ht7c+5M/kfZ98pPXhEEZAnlcnmaU+gqCtT93X0o/+7fThQ/9nfTMB9/VHPZs/uZ/7mgjBL69FAQX/qwRBMfShef7e9Pyt//qt/uy5G///XjNq19TdE1O9QPWy4etbpqymk+mqnW3so0Go9TT33KsFW/YhY9i44Zbxuh+O9Cb1jAYXwgsva5GEDzf7OjF2cvz6c0f++/pzb/w79OZRndz2PkrjQA40tgj+LM0d/HPG4t7ohHF59OVK5N949r5e+/bmT7yy/+meZ6glA8Nve1t24q+2VL3oR600e72FxIGDGs66tDgbVHe/tGFQH/LqYbBOEMg62uP4MyLa9KFE8fT2W99M52+vHR76ucaQfDg73w9/ebDx9Infufp9In/caFRzjfH9SMfBqo7PJTLsPL5gXyeoFxe3vv48R//68XYevktGtWff1BLlXB5gZWwbv1NPZWqSdXX2fhcrHRrUnVt69ZfEDQa/2e/9a307OFvpbNXloLgh9/x2bTlXb+f/up7Pp/etPML6c3vz+WLzf979alPH3zpUFA+np9L9fDQsPL5geryuoVAv6pvad2fu3VY3TRVGn2mzdlnz/dUSqshBEa37G6f+HrVw0HVw0TDqd+WvoPg4d/7vfS7x76XzlxZmvWLp+58qfz+X74mHfje0j2LVuKHZN89cSJtftWrir7lOu1ZlA1vpz98t/H57e305y7Hd5oGJmpMlbLT52RUun0eZ13rOYHWcwaDaf+Hnrv33nsXD372c0Vve+1+WZwb/zdsuis99VxKJ0+l9PjjX0s/+7ZzzSDI83QKhHwJZ69XBpWXkvYzffWbfw6CdnsX1QrV7q0qpxnxZ6bWIBW83K7V/OFgMG3rxJgq8/L1jWIl1y6jl3qef0PwjT/5Rrr7rqtXDFadPHky/ZXX/Ug6e/pMMWS5q+sY5jX0P2+nE8OdxnXWfjve+a5397dHUP1Fcfn/X37/ufR0EQJPPn0lPfH4s83hvcgNdfWQTaeSp+13+lHKb+Mw1aEfdevptv5caXv5cMDkjOITM/gyPvTBn0lvfNMbX/oBWWvJIZCn6WwUr6F3+SEx/+znf6FtQ1/uGfzcP//5Ykgvur+GvoKgzhOPn04HPv+/0h89+gfp6Df+IJ0/d6kYM33Kk8Wt5eM1v0Yep7LR7rXhrv4ZJ1stYVCjqKnDLeM/fuxjzW/75549W1vyuDxNe8O+hv7nn5ubS4e//scdv+3ncd/+5teLvm5624ahDw110+nQ0DQpG+VRVN9uqgHQbn3dtqfXEIG2dWVMlX00l1t2Xkb3+j/cNgz/Gsb05vas9/XnQ0M9B8Gs67VhncSfr1qJu21PVjdN9w8CLGlbV8ZQ2ZfWNeyCu8/fuf4Pvv5Jbf9k9LYdfZ8jmGX5Len0tnQbP0r9rqeu0veyjEm9HqZX5wZzNq3G1zQe+Z3q7d1qBMGtRSejUr79o6ywdcvs1NCX44RBTKOuf9NinK9pNb5fS7q/sjB7BKtVXUPfOkwYxLJaA2D1NtST0PkdFAQB+ABxDd8OqBAEY9DLZyxP02m6YT6n1YZfCDApS3VtpRNm2PWv9PaPU/vXJgjGrJeGOE9TLaVhw6C6LBiXq3VNCEyvzq9NEExA+UEZpGFezVWTCcuVqSwjt9I1ddj1j3L7B/20j0v319YIgqeLztkybW81RLT0GZz1EFjNbUlv703zB2Wf+cxnil4AInn3uwP9oAyAeoIAIDhBABCcIAAIThAABCcIAIITBADBCQKA4AQBQHCCACA4QQAQnCAACE4QAAQnCACCEwQAwQkCgOAEAUBwggAgOEEAEJwgAAhOEAAEJwgAghMEAMEJAoDgBAFAcIIAIDhBABCcIAAIThAABCcIAIITBADBCQKA4AQBQHCCACA4QQAQnCAACE4QAAQnCACCEwQAwQkCgOAEAUBwggAgOEEAEJwgAAhOEAAEJwgAghMEAMEJAoDgBAFAcIIAIDhBABCcIAAIThAABCcIAIITBADBCQKA4AQBQHCCACA4QQAQnCAACE4QAAQnCAAC+4lGEQQAwQkCgOAEAUBwggAgOEEAEJwgAAhOEAAE9oeNIggAghMEAMEJAoDgBAFAcIIAIDhBABCcIAAIThAABCcIAIITBADBCQKA4AQBQHCCACA4QQAQnCAACE4QAAQnCACCEwQAwQkCgOAEAUBwggAgOEEAEJwgAAhOEAAEJwgAghMEAMEJAoDgBAFAcIIAIDhBABCcIAAIThAABCcIAIITBADBCQKA4AQBQHCCACA4QcAYHE17t21MGzcOWbbtTnuPFovs5sDu+mX0W/pZ50uOpgN7d6dty17ztrRt9950oOuyDqTdjem37T1Q9MPkCQLGYEvac+h0On16mHIo7Wk0knsbDXNPTeTCvppl9FkO7UsLR/tYZ3Z0b9rWaPR3N2bYs+9QZVl70kJu5LctjevmaN/hA6MjCJhSW9KWLUXnpGxZSAsLRXdPckO/Nx3dsicdyiFS3eDGsnIw7Fto7C3s3jbAXgZMjiCAAR3YnfccGns/+/Y0/q23sK8REPlQ2e5GYBTDYNoIAhjIgXQgH/JZ2JP2dNxzaewZ5AmONqaXBEwpQcCUOjrdx80bKZBzYEsPx6+2LCw09hiONmaRBEwnQcB4HN2bdg915VA+rr4lLezLJ12nVy9BANNOEDAGS8fED6Q96VD1qpy+Sz7ZqqGFcZvfUHTA6BSHdRrflld7M37UdZ+sAvYIYBALC81DVr0EwdEDBxrRuKUxi70bppMggIEUvzk4sLfLbwQOpL15gvwbBTnAlBIEMKBefiPQy28NYKXNn15cLDphxI4ebdtArg4Lad+hRgOfbzORb0tRfbH5VhW78+0l8pVPh7r81gBWzmIjA+wRMAaNBnLfwlIDWXtpaD+lj/v+DG2Ak9z59hLNq5tSo+GvbPe2fNVUDoqlcTDNBAHjsbCv86WjReu4sK9m3LKSD79MyqBXOzW+9e9pvN5lN9o7lA7l30DYE2AGCAIoFYey/EiMaAQBlAYIgqN7t43k8JXwYSUJAigcaN5FbpDbXxeHlAaykPadPp0OOZvMChIE0FTcTdT1/gQkCCAr7ybavFMoxDK3ffv2xYMHDxa9MITm9fTjewBLvsLomksx87OKe3kW5IBq11mRzxE0XnLac8hvBZhNO3bsEAQwlCKIugUGTCtBACOQn0m8ewQPndmy55CTxkycIAAILgeBk8UAwQkCgOAEAUBwggAgOEEAEJwgAAhOEAAEJwgAghMEAMEJAoDgBAFAcIIAIDhBABCcIAAIThAABCcIAIITBADBCQKA4AQBQHCCACA4QQAQnCAACE4QAAQnCACCEwQAwQkCgOAEAUBwggAgOEEAEJwgAAhOEAAEJwgAghMEAMEJAoDgBAFAcI0gWCg6AYjIHgFAcIIAIDhBABCcIAAIThAABNcIggNFJwAR2SMACE4QAAQnCACCEwQAwQkCgOAEAUBwggAguLnt27cvHjx4sOilanFxMV25cqXog+lz6dKlND8/n9auXVsMgf7s2LFDEHSSQ2DdunXpuuuuK4bAdDl37lw6e/Zsuummm4ohs+vy5cvpqaeeaobbiy++WAyNKf89b7nllom0PYKgi1wx8x9jbm6uGALT5eLFi+nUqVMzHwT5s3by5Ml0++23p9tuu625lxNVDsFnnnkmPfnkk2nz5s1jD4McBM4RACsuN3ybNm1Kd9xxR+gQyPLrz2GYS95DmoSRvuMbN25cVqpa++sMM3/rvGUpVbuB6XL+/Hmf0RY5CPJhskkYWRDkP+Lp06eXlX7+sMPOn7XOnwswG9asWVN0keX3Y1LnShwaAghOEAAEJwgAgptoEORj/v0e9wdgvCYaBE7gAkwfh4YAghMEAMGNLAjyIZ/yHEBZ+jkMNOz8Wev8ZQGgvZHuEeSGu1r6Ncz8rfNWCwDtTezQ0LAN8krPD7BaOUcAEJwgAAhOEAAEJwgAghMEAMEJAoDgBAFAcIKgi2PHjqXFxUVFmcqSH/g+NzdX1FYYzNz27dsXDx48WPRSlR8T99BDD6UzZ84UQ2C6bNiwId1///0z/8D348ePp61btxZ9w+n2yMsrV64UXUuGnb46Po9rnX4Yhw8fTnfeeWfRNx47duwQBMDKG2UQdNJvQ906fd381WGzGgQODQEEJwiAVSV/K29XqCcIgFUnH55pV7iWIADoUQ6S1r2M1RAuggBYdVob62oZVnXvYjWEQCYIgFWlrqFu7Wc5QQBQI+891AVHp72KWQ0aQQCsGtVDQGWpG15qHV4t1fGrnSAAVo3qIaBOpVQ3rq60qgZGa5lFggCgD3VBUS2zSBAABCcIAIITBADBCQKA4NyGuoP84I9ZPflDDJcuXWo+i2Dt2rXFkNk0qdtQzxrPI5gCOQTWrVuXrrvuumIITJdz586ls2fPpptuuqkYctXly5fTU0891QyL/JCllZC365Zbbun6GRIE9QTBFMgfpFyJPQqQaXXx4sV06tSpa4Ig1938GMvbb7893XbbbSvyBLMcPs8880x68skn0+bNmzuGgSCo58E0wMByA7xp06Z0xx13rNhjLPN6cwjlkvdMmF4jqyEbN24suq6qDmsdn/vrSqnanbX2Z52mr8rjqgVWu/Pnz09NXc9BkA9PMb1WdI/g9OnTy8q4TGo9ME2m5XYHeTtW6hwFvZmpQ0N13+yr3VXV6ToVgOhmKgjqvtlXu6s6Tdc6DuJ4JO166QZpW9MDRxqDjjyQHnhkaezy8WvSrubwR9IDzQmXuq+Zf9l4ZtFIg6Dfb9v9Tj+IvNxqg5+7x7UumH7vSw+XN0g7vLMRAsXgl1THfyS9vhh6Vbf5mUUjDYLqN+1q41unddqylKrdpWpoaMxhHI6kB7YW3/i3fjR9uxjK6raih4ZaG/bWUtUaGGXpJk/Tutxe5oPV7sgjjWb+dUvd+3eVh4Eadj689I2/UR5+XzGsRnV+ZtuKBkG1QW8to1Rd5qiXDbPoyCO70q79r0/vKxrynQ/XNPpHjqRHdm29GhAVrfMz26Z2j6BOu+GZBh56cOSBtDWfBN6/Mz18+MP1X+j371o6NLRrV9rf2Dv4SDUgepmfmTOyW0y0a6TLBjqPb22s64Z10s/0nUKjqtPy3GKCadfuFhN93bIhXzV05MPpwx0OAw2r260S3GKi3szdYiI3qHWlm9xgtyt16qYrS1XdttQVCO914w0Bpt/EDg3VNbqtjXJraVU3TbUA0L8VPUcAjEe+4Vu+6mca9LId07S902KS74cggFXohhtumJo7ftadw2g1Tds7LXp530ZFEMAqVN76OZeV+qad15ufRZBLvuiik2nY3mnRz/s2Kh5M04Grhph27a4aynL9PXHiRPPZBPmxq5OWL0HdsGFD86qXXp7yt9LbOy36fd+G5QllXQgCpl2nIIBeeEIZAIIAIDpB0MWxY8eaxysVZRpLfkC9Q5cMyzmCDvLj9R566KF05syZYghMl3xS8f7771+xB9Qz+5wsBgjOyWIABAFAdA4NASsq/14n/6L40qVLzfNypObvQvJvmPygDFj1cgjkK59uv/325m0mnPReukgl/7o632Ji8+bNYw8D5wiAFZUbvE2bNqU77rhDCBTy+5BDsbz/0iR454EVc/78+WseKsWSHAT5cNkkCAJgReWbrHGt/L5M6pyJIAAIThAAMyl/Yy5LVbs9jF6nr05XLaVqd6ndtFnd9NPGVUNdfOELX0iPPvpounDhQjHkWi972cvSW9/61rSwsFAMqdftWGjrc5eHnb46Po/r9Fzndusq56mbv9MyB11fludrnb/f6ZkNx48fT1u3bi36RiM3vK0Pt2kdVu2vm75Vp+nr5u93+e0cPny4+VyCcXL5aBef/vSnmydr3vOe9zQb+3bylQ+f+9zn0s0335ze8Y53FEP7029DVtdQts5fHdbr8ttN1235rXpdXzaKZfezPqbHIEGQG9Z2coPbrWHO+m2oO01fN3+/y29nUkHg0FAHX/va19J9993XMQSy/MOP9773vc09h9UkN65laac6TbXAuORGtV1pJ4/LDXJZOk0bkSDoIB8O6vWZoTksOh0+yuoazLJMk3J78jfssrRTnaZaxiVvW15+3Xs2je8l41Nt2HvRS2AMojVkcpm1oBEEE9baYFbLSisb2VxWokEtG/J26y63L6vbxnLbWf3KxrYsub+dagPdWnqRp2tt2Fvnr25L67St/dNIEKwSZcNYLf00iq3Tl8vrprq+aulVnrZcV/6/LK3K8VXlfNBJawPd2j+I1vk7hUqvgbOSBMGE5YarXRlWtSFtbTS7qZu+Oqzd+GppHTZK7ZZXXS9x5Ea4/FaeyyCNejlvJ4Mue9YIggkqG8iytA6bBnUBlcs45OVW34de1lPdpmohnrKB7qWhLhv86rS5u9O8/YZAGSytZRYIghmUG7664OjUIPYSNOVy68o0NLbTvn1MRmsj29rfr9bGvlxWPyGQlcHSWmaBIJiQ3FC1lrrhpdbh1VIdv1Kq21PdlrphdfK43IBXadDpRV1jW5ZOqoHRWqp6WVaduuXmMgsEQQe9XBJayj8q6/R7g+q3106lVDeurrSqNsKtpZu8vLr5cmldV3UbOpV22o3rNk/dtuXSaT5iqWvEy8a9XelH3fSty2st004QdLB9+/b0qU99qtnId5LDIv+y+C1veUsxZGXkxrBT6UXdfLlMWrt1tm5XWYDBucVEFwcOHEhf/epX08WLF4sh11q7dm0zNPKvkIHejeNeQ6uJew0Bq953v/vdtGXLlpk5lj5J+ZDSkSNH3GsIWN1uuOGGiT2OcdacOnWq+RD7SRAEwIopn8ubyyycVJ2E/D7kB9fn0uu9zobl0BCwoi5fvpxOnDjRvChjcXGxGBpXPky2YcOG5iGh6667rhg6Ps4RAATnHAEAggAgOkEAEJwgAAhOEAAEJwgAghMEAMEJAoDgBAFAcIIAIDhBABCcIAAIThAABCcIAIITBADBza8vOgCIyR4BQHCCACA4QQAQ3PyzRQcAMdkjAAhOEAAEJwgAghMEAMEJAoDgBAFAcIIAIDhBABCcIAAIThAABCcIAIITBADBCQKA4AQBQHCCACA4QQAQnCAACE4QAAQnCACCEwQAwQkCgOAEAUBwggAgOEEAEJwgAAhOEAAEJwgAghMEAMEJAoDgBAFAcIIAIDhBABCcIAAIThAABCcIAIITBADBCQKA4AQBQHCCACA4QQAQnCAACK4RBH+36AQgInsEAMEJAoDgBAFAcIIAIDhBABCcIAAIThAABCcIAIITBADBCQKA4BpB8NmiE4CI7BEABCcIAIITBADBCQKA4AQBQHCCACA4QQAQnCAACE4QAAQnCACCEwQAwQkCgOAEAUBwggAgOEEAEJwgAAhu/pVFBwAxzT9RdAAQk0NDAMEJAoDgBAFAcIIAIDhBABCcIAAIThAABCcIAIITBADBCQKA4AQBQHCCACA4QQAQnCAACE4QAAQnCACCEwQAwQkCgOAEAUBwggAgOEEAEJwgAAhOEAAEJwgAghMEAMEJAoDgBAFAcIIAIDhBABCcIAAIThAABCcIAIITBADBCQKA4AQBQHCCACA4QQAQnCAACE4QAAQnCACCEwQAwQkCgOAEAUBwggAgOEEAEJwgAAhOEAAEJwgAghMEAMEJAoDgBAFAcIIAIDhBABCcIAAIThAABCcIAIITBADBCQKA4AQBQHCCACA4QQAQ3Pzi4mLRCUA0OQPsEQAEJwgAghMEAMEJAoDgBAFAcIIAIDhBABCcIAAIThAABCcIAIKbv+2224pOAKLJGWCPACC4+TNnzhSdAESTM2D+8uXLRS8A0eQMcGgIIDhBABCcIAAIThAABCcIAIITBADBCQKA4AQBQHCCACA4QQAQnCAACG7+5ptvLjoBiCZnwHxD0QtANDkD3IYaILDmbahfeOGFoheAaHIGOC4EEJwgAAhOEAAEJwgAghMEAMEJAoDgBAFAcIIAIDhBABCcIAAIThAABCcIAIITBADBCQKA4AQBQHCCACA4QQAQnCAACE4QAAQnCACCEwQAwQkCgOAEAUBwggAgOEEAEJwgAAhOEAAEJwgAghMEAMEJAoDgBAFAcIIAIDhBABCcIAAIThAABCcIAIITBADBCQKA4AQBQHCCACA4QQAQnCAACE4QAAQnCACCEwQAwQkCgOAEAUBwggAgOEEAEJwgAAhOEAAEJwgAghMEAMEJAoDgBAFAcIIAIDhBABCcIAAIThAABCcIAIITBADBCQKA4AQBQHCCACA4QQAQnCAACE4QAAQnCACCEwQAwQkCgOAEAUBwggAgOEEAEJwgAAhOEAAEJwgAghMEAMEJAoDA5ubmBAFAdIIAIDhBABCcIAAIThAABCcIAIITBADBCQKA4AQBQHCCACA4QQAQnCAACE4QAAS2uLgoCACiEwQAwQkCgOAEAUBwggAgOEEAENx8fl4lADF5ZjEAaf7y5cvp6aefLnoBiCK3/TkD5i9evJi+853vFIMBiOKxxx5LOQPmn3/++WYPALHknYCcAfNnz55N+/fvTydPnixGAbDa5TY/t/05A+YvXbqUvv/976cHH3ywGA3Aapfb/Nz25wxYs27dul+5cOFCeuaZZ9KJEyfSa1/72tQYVkwKwGqS9wQ+/vGPpy996UvpBz/4QfPy0blXvvKVi/k2pLln48aNadOmTWnnzp3p7rvvTvfcc0+69dZbi9kBmEX56qB8PiCfD86Hg/KewOnTp5u3oF4WBKXrr78+rV+/Pt14441p7dq1ac2aNcWY5arzEI+//+zyI9LVq93fNl8imq8OyieG8zmBF154oRiT55lL/x8/8LaUxRIRVwAAAABJRU5ErkJggg==;" vertex="1" parent="5KOX99yl3v-jirwnwCUR-59">
          <mxGeometry x="1000" y="20" width="312.45" height="480" as="geometry" />
        </mxCell>
        <mxCell id="DTMJZyZO-ZxWe8ejDAMS-6" value="로그인 시나리오" style="text;html=1;align=center;verticalAlign=middle;resizable=0;points=[];autosize=1;strokeColor=none;fillColor=none;fontSize=18;fontStyle=1" parent="1" vertex="1">
          <mxGeometry x="-240" y="95" width="150" height="40" as="geometry" />
        </mxCell>
        <mxCell id="5KOX99yl3v-jirwnwCUR-43" style="edgeStyle=orthogonalEdgeStyle;rounded=0;orthogonalLoop=1;jettySize=auto;html=1;exitX=0.5;exitY=1;exitDx=0;exitDy=0;entryX=0.5;entryY=0;entryDx=0;entryDy=0;" edge="1" parent="1" source="5KOX99yl3v-jirwnwCUR-2" target="5KOX99yl3v-jirwnwCUR-32">
          <mxGeometry relative="1" as="geometry" />
        </mxCell>
        <mxCell id="5KOX99yl3v-jirwnwCUR-45" style="edgeStyle=orthogonalEdgeStyle;rounded=0;orthogonalLoop=1;jettySize=auto;html=1;exitX=1;exitY=0.5;exitDx=0;exitDy=0;entryX=0;entryY=0.5;entryDx=0;entryDy=0;" edge="1" parent="1" source="5KOX99yl3v-jirwnwCUR-2" target="5KOX99yl3v-jirwnwCUR-44">
          <mxGeometry relative="1" as="geometry" />
        </mxCell>
        <mxCell id="5KOX99yl3v-jirwnwCUR-2" value="클라이언트 C#&lt;div&gt;실행&lt;/div&gt;" style="rounded=0;whiteSpace=wrap;html=1;" vertex="1" parent="1">
          <mxGeometry x="-160" y="540" width="120" height="60" as="geometry" />
        </mxCell>
        <mxCell id="5KOX99yl3v-jirwnwCUR-3" style="edgeStyle=orthogonalEdgeStyle;rounded=0;orthogonalLoop=1;jettySize=auto;html=1;exitX=1;exitY=0.5;exitDx=0;exitDy=0;entryX=0;entryY=0.5;entryDx=0;entryDy=0;" edge="1" parent="1" source="5KOX99yl3v-jirwnwCUR-4" target="5KOX99yl3v-jirwnwCUR-7">
          <mxGeometry relative="1" as="geometry" />
        </mxCell>
        <mxCell id="5KOX99yl3v-jirwnwCUR-55" style="edgeStyle=orthogonalEdgeStyle;rounded=0;orthogonalLoop=1;jettySize=auto;html=1;exitX=0.5;exitY=1;exitDx=0;exitDy=0;entryX=0.5;entryY=0;entryDx=0;entryDy=0;" edge="1" parent="1" source="5KOX99yl3v-jirwnwCUR-4" target="5KOX99yl3v-jirwnwCUR-54">
          <mxGeometry relative="1" as="geometry" />
        </mxCell>
        <mxCell id="5KOX99yl3v-jirwnwCUR-4" value="자동로그인 정보 확인" style="rounded=0;whiteSpace=wrap;html=1;" vertex="1" parent="1">
          <mxGeometry x="240" y="540" width="120" height="60" as="geometry" />
        </mxCell>
        <mxCell id="5KOX99yl3v-jirwnwCUR-6" style="edgeStyle=orthogonalEdgeStyle;rounded=0;orthogonalLoop=1;jettySize=auto;html=1;exitX=1;exitY=0.5;exitDx=0;exitDy=0;entryX=0;entryY=0.5;entryDx=0;entryDy=0;" edge="1" parent="1" source="5KOX99yl3v-jirwnwCUR-7" target="5KOX99yl3v-jirwnwCUR-11">
          <mxGeometry relative="1" as="geometry" />
        </mxCell>
        <mxCell id="5KOX99yl3v-jirwnwCUR-7" value="로그인 정보 입력&lt;div&gt;(tbId, tbPw)&lt;/div&gt;" style="rounded=0;whiteSpace=wrap;html=1;" vertex="1" parent="1">
          <mxGeometry x="440" y="540" width="120" height="60" as="geometry" />
        </mxCell>
        <mxCell id="5KOX99yl3v-jirwnwCUR-8" value="자동로그인 정보가 있으면&amp;nbsp;&lt;div&gt;로그인 텍스트박스에 자동 입력&lt;/div&gt;" style="text;html=1;align=left;verticalAlign=middle;resizable=0;points=[];autosize=1;strokeColor=none;fillColor=none;" vertex="1" parent="1">
          <mxGeometry x="580" y="850" width="190" height="40" as="geometry" />
        </mxCell>
        <mxCell id="5KOX99yl3v-jirwnwCUR-9" value="자동로그인 시&amp;nbsp;&lt;div&gt;이미 입력 완료&lt;/div&gt;" style="text;html=1;align=center;verticalAlign=middle;resizable=0;points=[];autosize=1;strokeColor=none;fillColor=none;" vertex="1" parent="1">
          <mxGeometry x="500" y="640" width="100" height="40" as="geometry" />
        </mxCell>
        <mxCell id="5KOX99yl3v-jirwnwCUR-10" style="edgeStyle=orthogonalEdgeStyle;rounded=0;orthogonalLoop=1;jettySize=auto;html=1;exitX=1;exitY=0.5;exitDx=0;exitDy=0;entryX=0;entryY=0.5;entryDx=0;entryDy=0;" edge="1" parent="1" source="5KOX99yl3v-jirwnwCUR-11" target="5KOX99yl3v-jirwnwCUR-13">
          <mxGeometry relative="1" as="geometry" />
        </mxCell>
        <mxCell id="5KOX99yl3v-jirwnwCUR-11" value="로그인 버튼 클릭" style="rounded=0;whiteSpace=wrap;html=1;" vertex="1" parent="1">
          <mxGeometry x="640" y="540" width="120" height="60" as="geometry" />
        </mxCell>
        <mxCell id="5KOX99yl3v-jirwnwCUR-12" style="edgeStyle=orthogonalEdgeStyle;rounded=0;orthogonalLoop=1;jettySize=auto;html=1;exitX=1;exitY=0.5;exitDx=0;exitDy=0;entryX=0;entryY=0.5;entryDx=0;entryDy=0;" edge="1" parent="1" source="5KOX99yl3v-jirwnwCUR-13" target="5KOX99yl3v-jirwnwCUR-16">
          <mxGeometry relative="1" as="geometry" />
        </mxCell>
        <mxCell id="5KOX99yl3v-jirwnwCUR-13" value="tbId, tbPw에서 받은 로그인정보&amp;nbsp;&lt;div&gt;자동로그인 변수에&lt;div&gt;저장&lt;/div&gt;&lt;/div&gt;" style="rounded=0;whiteSpace=wrap;html=1;" vertex="1" parent="1">
          <mxGeometry x="840" y="540" width="120" height="60" as="geometry" />
        </mxCell>
        <mxCell id="5KOX99yl3v-jirwnwCUR-14" value="자동로그인 기능을 구현하려면&amp;nbsp;&lt;div&gt;해싱 전 비밀번호가 필요&lt;/div&gt;" style="text;html=1;align=left;verticalAlign=middle;resizable=0;points=[];autosize=1;strokeColor=none;fillColor=none;" vertex="1" parent="1">
          <mxGeometry x="811" y="610" width="190" height="40" as="geometry" />
        </mxCell>
        <mxCell id="5KOX99yl3v-jirwnwCUR-15" style="edgeStyle=orthogonalEdgeStyle;rounded=0;orthogonalLoop=1;jettySize=auto;html=1;exitX=1;exitY=0.5;exitDx=0;exitDy=0;entryX=0;entryY=0.5;entryDx=0;entryDy=0;" edge="1" parent="1" source="5KOX99yl3v-jirwnwCUR-16" target="5KOX99yl3v-jirwnwCUR-19">
          <mxGeometry relative="1" as="geometry" />
        </mxCell>
        <mxCell id="5KOX99yl3v-jirwnwCUR-16" value="비밀번호 해싱" style="rounded=0;whiteSpace=wrap;html=1;" vertex="1" parent="1">
          <mxGeometry x="1040" y="540" width="120" height="60" as="geometry" />
        </mxCell>
        <mxCell id="5KOX99yl3v-jirwnwCUR-17" value="SHA256을 사용하여 해싱" style="text;html=1;align=center;verticalAlign=middle;resizable=0;points=[];autosize=1;strokeColor=none;fillColor=none;" vertex="1" parent="1">
          <mxGeometry x="1020" y="610" width="160" height="30" as="geometry" />
        </mxCell>
        <mxCell id="5KOX99yl3v-jirwnwCUR-18" style="edgeStyle=orthogonalEdgeStyle;rounded=0;orthogonalLoop=1;jettySize=auto;html=1;exitX=1;exitY=0.5;exitDx=0;exitDy=0;entryX=0;entryY=0.5;entryDx=0;entryDy=0;" edge="1" parent="1" source="5KOX99yl3v-jirwnwCUR-19" target="5KOX99yl3v-jirwnwCUR-21">
          <mxGeometry relative="1" as="geometry" />
        </mxCell>
        <mxCell id="5KOX99yl3v-jirwnwCUR-19" value="서버에 로그인 정보&amp;nbsp;&lt;div&gt;전송&lt;/div&gt;&lt;div&gt;(id, 해싱된 pw)&lt;/div&gt;" style="rounded=0;whiteSpace=wrap;html=1;" vertex="1" parent="1">
          <mxGeometry x="1240" y="540" width="120" height="60" as="geometry" />
        </mxCell>
        <mxCell id="5KOX99yl3v-jirwnwCUR-20" style="edgeStyle=orthogonalEdgeStyle;rounded=0;orthogonalLoop=1;jettySize=auto;html=1;exitX=1;exitY=0.5;exitDx=0;exitDy=0;entryX=0;entryY=0.5;entryDx=0;entryDy=0;" edge="1" parent="1" source="5KOX99yl3v-jirwnwCUR-21" target="5KOX99yl3v-jirwnwCUR-25">
          <mxGeometry relative="1" as="geometry" />
        </mxCell>
        <mxCell id="5KOX99yl3v-jirwnwCUR-21" value="서버에서 오는 로그인 성공 여부 수신" style="rounded=0;whiteSpace=wrap;html=1;" vertex="1" parent="1">
          <mxGeometry x="1440" y="540" width="120" height="60" as="geometry" />
        </mxCell>
        <mxCell id="5KOX99yl3v-jirwnwCUR-22" value="로그인 성공여부는 텍스트가&amp;nbsp;&lt;div&gt;아니라 꼭 지정 코드로!!&lt;/div&gt;" style="text;html=1;align=left;verticalAlign=middle;resizable=0;points=[];autosize=1;strokeColor=none;fillColor=none;" vertex="1" parent="1">
          <mxGeometry x="1420" y="605" width="180" height="40" as="geometry" />
        </mxCell>
        <mxCell id="5KOX99yl3v-jirwnwCUR-23" style="edgeStyle=orthogonalEdgeStyle;rounded=0;orthogonalLoop=1;jettySize=auto;html=1;exitX=1;exitY=0.5;exitDx=0;exitDy=0;entryX=0;entryY=0.5;entryDx=0;entryDy=0;" edge="1" parent="1" source="5KOX99yl3v-jirwnwCUR-25" target="5KOX99yl3v-jirwnwCUR-27">
          <mxGeometry relative="1" as="geometry" />
        </mxCell>
        <mxCell id="5KOX99yl3v-jirwnwCUR-24" style="edgeStyle=orthogonalEdgeStyle;rounded=0;orthogonalLoop=1;jettySize=auto;html=1;exitX=1;exitY=0.5;exitDx=0;exitDy=0;entryX=0;entryY=0.5;entryDx=0;entryDy=0;" edge="1" parent="1" source="5KOX99yl3v-jirwnwCUR-25" target="5KOX99yl3v-jirwnwCUR-31">
          <mxGeometry relative="1" as="geometry" />
        </mxCell>
        <mxCell id="5KOX99yl3v-jirwnwCUR-25" value="로그인 성공, 실패" style="rounded=0;whiteSpace=wrap;html=1;" vertex="1" parent="1">
          <mxGeometry x="1640" y="540" width="120" height="60" as="geometry" />
        </mxCell>
        <mxCell id="5KOX99yl3v-jirwnwCUR-26" style="edgeStyle=orthogonalEdgeStyle;rounded=0;orthogonalLoop=1;jettySize=auto;html=1;exitX=1;exitY=0.5;exitDx=0;exitDy=0;entryX=0;entryY=0.5;entryDx=0;entryDy=0;" edge="1" parent="1" source="5KOX99yl3v-jirwnwCUR-27" target="5KOX99yl3v-jirwnwCUR-29">
          <mxGeometry relative="1" as="geometry" />
        </mxCell>
        <mxCell id="5KOX99yl3v-jirwnwCUR-27" value="로그인 성공 시" style="rounded=0;whiteSpace=wrap;html=1;" vertex="1" parent="1">
          <mxGeometry x="1840" y="480" width="120" height="60" as="geometry" />
        </mxCell>
        <mxCell id="5KOX99yl3v-jirwnwCUR-28" value="로그인 실패 메시지와 로그인&amp;nbsp;&lt;div&gt;재시도를 위한 폼 유지&lt;/div&gt;" style="rounded=0;whiteSpace=wrap;html=1;" vertex="1" parent="1">
          <mxGeometry x="2040" y="600" width="190" height="60" as="geometry" />
        </mxCell>
        <mxCell id="5KOX99yl3v-jirwnwCUR-29" value="&amp;nbsp;자동로그인을 위한 변수에 저장된 로그인정보를 config.json파일에&amp;nbsp;저장" style="rounded=0;whiteSpace=wrap;html=1;" vertex="1" parent="1">
          <mxGeometry x="2040" y="480" width="190" height="60" as="geometry" />
        </mxCell>
        <mxCell id="5KOX99yl3v-jirwnwCUR-30" style="edgeStyle=orthogonalEdgeStyle;rounded=0;orthogonalLoop=1;jettySize=auto;html=1;exitX=1;exitY=0.5;exitDx=0;exitDy=0;entryX=0;entryY=0.5;entryDx=0;entryDy=0;" edge="1" parent="1" source="5KOX99yl3v-jirwnwCUR-31" target="5KOX99yl3v-jirwnwCUR-28">
          <mxGeometry relative="1" as="geometry" />
        </mxCell>
        <mxCell id="5KOX99yl3v-jirwnwCUR-31" value="로그인 실패 시" style="rounded=0;whiteSpace=wrap;html=1;" vertex="1" parent="1">
          <mxGeometry x="1840" y="600" width="120" height="60" as="geometry" />
        </mxCell>
        <mxCell id="5KOX99yl3v-jirwnwCUR-36" style="edgeStyle=orthogonalEdgeStyle;rounded=0;orthogonalLoop=1;jettySize=auto;html=1;exitX=0.25;exitY=1;exitDx=0;exitDy=0;entryX=0.5;entryY=0;entryDx=0;entryDy=0;" edge="1" parent="1" source="5KOX99yl3v-jirwnwCUR-32" target="5KOX99yl3v-jirwnwCUR-34">
          <mxGeometry relative="1" as="geometry" />
        </mxCell>
        <mxCell id="5KOX99yl3v-jirwnwCUR-37" style="edgeStyle=orthogonalEdgeStyle;rounded=0;orthogonalLoop=1;jettySize=auto;html=1;exitX=0.75;exitY=1;exitDx=0;exitDy=0;entryX=0.5;entryY=0;entryDx=0;entryDy=0;" edge="1" parent="1" source="5KOX99yl3v-jirwnwCUR-32" target="5KOX99yl3v-jirwnwCUR-35">
          <mxGeometry relative="1" as="geometry" />
        </mxCell>
        <mxCell id="5KOX99yl3v-jirwnwCUR-32" value="클라이언트 프로그램 중복실행 여부 확인" style="rounded=1;whiteSpace=wrap;html=1;" vertex="1" parent="1">
          <mxGeometry x="-160" y="730" width="120" height="60" as="geometry" />
        </mxCell>
        <mxCell id="5KOX99yl3v-jirwnwCUR-34" value="중복실행 메시지 창과함께 종료" style="rounded=1;whiteSpace=wrap;html=1;" vertex="1" parent="1">
          <mxGeometry x="-240" y="860" width="120" height="60" as="geometry" />
        </mxCell>
        <mxCell id="5KOX99yl3v-jirwnwCUR-35" value="클라이언트 프로그램 실행" style="rounded=1;whiteSpace=wrap;html=1;" vertex="1" parent="1">
          <mxGeometry x="-80" y="860" width="120" height="60" as="geometry" />
        </mxCell>
        <mxCell id="5KOX99yl3v-jirwnwCUR-38" value="중복실행 시" style="text;html=1;align=center;verticalAlign=middle;resizable=0;points=[];autosize=1;strokeColor=none;fillColor=none;" vertex="1" parent="1">
          <mxGeometry x="-260" y="798" width="90" height="30" as="geometry" />
        </mxCell>
        <mxCell id="5KOX99yl3v-jirwnwCUR-39" value="중복 실행이 아닐 시" style="text;html=1;align=center;verticalAlign=middle;resizable=0;points=[];autosize=1;strokeColor=none;fillColor=none;" vertex="1" parent="1">
          <mxGeometry x="-50" y="748" width="130" height="30" as="geometry" />
        </mxCell>
        <mxCell id="5KOX99yl3v-jirwnwCUR-46" style="edgeStyle=orthogonalEdgeStyle;rounded=0;orthogonalLoop=1;jettySize=auto;html=1;exitX=1;exitY=0.5;exitDx=0;exitDy=0;entryX=0;entryY=0.5;entryDx=0;entryDy=0;" edge="1" parent="1" source="5KOX99yl3v-jirwnwCUR-44" target="5KOX99yl3v-jirwnwCUR-4">
          <mxGeometry relative="1" as="geometry" />
        </mxCell>
        <mxCell id="5KOX99yl3v-jirwnwCUR-48" style="edgeStyle=orthogonalEdgeStyle;rounded=0;orthogonalLoop=1;jettySize=auto;html=1;exitX=0.5;exitY=1;exitDx=0;exitDy=0;entryX=0.5;entryY=0;entryDx=0;entryDy=0;" edge="1" parent="1" source="5KOX99yl3v-jirwnwCUR-44" target="5KOX99yl3v-jirwnwCUR-47">
          <mxGeometry relative="1" as="geometry" />
        </mxCell>
        <mxCell id="5KOX99yl3v-jirwnwCUR-51" style="edgeStyle=orthogonalEdgeStyle;rounded=0;orthogonalLoop=1;jettySize=auto;html=1;exitX=0.5;exitY=0;exitDx=0;exitDy=0;entryX=0.5;entryY=1;entryDx=0;entryDy=0;" edge="1" parent="1" source="5KOX99yl3v-jirwnwCUR-44" target="5KOX99yl3v-jirwnwCUR-50">
          <mxGeometry relative="1" as="geometry" />
        </mxCell>
        <mxCell id="5KOX99yl3v-jirwnwCUR-44" value="서버 연결 시도" style="rounded=0;whiteSpace=wrap;html=1;" vertex="1" parent="1">
          <mxGeometry x="40" y="540" width="120" height="60" as="geometry" />
        </mxCell>
        <mxCell id="5KOX99yl3v-jirwnwCUR-49" style="edgeStyle=orthogonalEdgeStyle;rounded=0;orthogonalLoop=1;jettySize=auto;html=1;exitX=1;exitY=0.5;exitDx=0;exitDy=0;" edge="1" parent="1" source="5KOX99yl3v-jirwnwCUR-47">
          <mxGeometry relative="1" as="geometry">
            <mxPoint x="200" y="570" as="targetPoint" />
          </mxGeometry>
        </mxCell>
        <mxCell id="5KOX99yl3v-jirwnwCUR-47" value="서버 연결 성공" style="rounded=1;whiteSpace=wrap;html=1;" vertex="1" parent="1">
          <mxGeometry x="40" y="680" width="120" height="60" as="geometry" />
        </mxCell>
        <mxCell id="5KOX99yl3v-jirwnwCUR-53" style="edgeStyle=orthogonalEdgeStyle;rounded=0;orthogonalLoop=1;jettySize=auto;html=1;exitX=0.5;exitY=0;exitDx=0;exitDy=0;entryX=0;entryY=0.5;entryDx=0;entryDy=0;" edge="1" parent="1" source="5KOX99yl3v-jirwnwCUR-50" target="5KOX99yl3v-jirwnwCUR-52">
          <mxGeometry relative="1" as="geometry" />
        </mxCell>
        <mxCell id="5KOX99yl3v-jirwnwCUR-50" value="서버 연결 실패" style="rounded=1;whiteSpace=wrap;html=1;" vertex="1" parent="1">
          <mxGeometry x="40" y="400" width="120" height="60" as="geometry" />
        </mxCell>
        <mxCell id="5KOX99yl3v-jirwnwCUR-52" value="클라이언트 프로그램 종료" style="rounded=0;whiteSpace=wrap;html=1;" vertex="1" parent="1">
          <mxGeometry x="480" y="280" width="120" height="60" as="geometry" />
        </mxCell>
        <mxCell id="5KOX99yl3v-jirwnwCUR-57" style="edgeStyle=orthogonalEdgeStyle;rounded=0;orthogonalLoop=1;jettySize=auto;html=1;exitX=0.5;exitY=1;exitDx=0;exitDy=0;entryX=0.5;entryY=0;entryDx=0;entryDy=0;" edge="1" parent="1" source="5KOX99yl3v-jirwnwCUR-54" target="5KOX99yl3v-jirwnwCUR-56">
          <mxGeometry relative="1" as="geometry" />
        </mxCell>
        <mxCell id="5KOX99yl3v-jirwnwCUR-54" value="&lt;span style=&quot;text-align: left; text-wrap: nowrap;&quot;&gt;config.json파일에&amp;nbsp;&lt;/span&gt;&lt;div&gt;&lt;span style=&quot;text-align: left; text-wrap: nowrap;&quot;&gt;기존에&amp;nbsp;&amp;nbsp;&lt;/span&gt;&lt;span style=&quot;text-align: left; text-wrap: nowrap; background-color: initial;&quot;&gt;저장된&amp;nbsp;&lt;/span&gt;&lt;/div&gt;&lt;div&gt;&lt;span style=&quot;text-align: left; text-wrap: nowrap; background-color: initial;&quot;&gt;자동로그인을 위한&amp;nbsp;&lt;/span&gt;&lt;div style=&quot;text-wrap: nowrap;&quot;&gt;&lt;span style=&quot;background-color: initial;&quot;&gt;정보가 있는지 확인&amp;nbsp;&lt;/span&gt;&lt;/div&gt;&lt;/div&gt;" style="rounded=1;whiteSpace=wrap;html=1;" vertex="1" parent="1">
          <mxGeometry x="240" y="680" width="120" height="80" as="geometry" />
        </mxCell>
        <mxCell id="5KOX99yl3v-jirwnwCUR-58" style="edgeStyle=orthogonalEdgeStyle;rounded=0;orthogonalLoop=1;jettySize=auto;html=1;exitX=1;exitY=0.5;exitDx=0;exitDy=0;entryX=0.5;entryY=1;entryDx=0;entryDy=0;" edge="1" parent="1" source="5KOX99yl3v-jirwnwCUR-56" target="5KOX99yl3v-jirwnwCUR-7">
          <mxGeometry relative="1" as="geometry" />
        </mxCell>
        <mxCell id="5KOX99yl3v-jirwnwCUR-56" value="&lt;span style=&quot;text-wrap: nowrap;&quot;&gt;자동로그인 정보가&amp;nbsp;&lt;/span&gt;&lt;div&gt;&lt;span style=&quot;text-wrap: nowrap;&quot;&gt;있으면&amp;nbsp;&lt;/span&gt;&lt;span style=&quot;text-wrap: nowrap; background-color: initial;&quot;&gt;로그인&amp;nbsp;&lt;/span&gt;&lt;/div&gt;&lt;div&gt;&lt;span style=&quot;text-wrap: nowrap; background-color: initial;&quot;&gt;텍스트박스에&amp;nbsp;&lt;/span&gt;&lt;/div&gt;&lt;div&gt;&lt;span style=&quot;text-wrap: nowrap; background-color: initial;&quot;&gt;자동 입력&lt;/span&gt;&lt;/div&gt;" style="rounded=1;whiteSpace=wrap;html=1;align=center;" vertex="1" parent="1">
          <mxGeometry x="240" y="840" width="120" height="80" as="geometry" />
        </mxCell>
      </root>
    </mxGraphModel>
  </diagram>
</mxfile>
